# xmcd
#
# Track frame offsets:
#	150
#	15600
#	34537
#	49725
#	62625
#	79275
#	89250
#	107025
#	121350
#	135450
#	146400
#
# Disc length: 2115 seconds
#
# Revision: 1
# Processed by: cddbd v1.4PL0 Copyright (c) Steve Scherf et al.
# Submitted via: audiograbber 1.80
#
DISCID=8b08410b
DTITLE=Paralamas do Sucesso - Longo Caminho
DYEAR=1900
DGENRE=
TTITLE0=O Calibre
TTITLE1=Seguindo Estrelas
TTITLE2=Longo caminho
TTITLE3=Soldado da Paz
TTITLE4=Cuide Bem Do Seu Amor
TTITLE5=Amor Em Vao
TTITLE6=Flores No Deserto
TTITLE7=Runnig on The Spot
TTITLE8=Flores e Espinhos
TTITLE9=La Estacion
TTITLE10=Hinchley Pond
EXTD=
EXTT0=
EXTT1=
EXTT2=
EXTT3=
EXTT4=
EXTT5=
EXTT6=
EXTT7=
EXTT8=
EXTT9=
EXTT10=
PLAYORDER=
